# xmcd CD database file
#
# Track frame offsets:
#	150
#	27050
#	63860
#	93337
#	126985
#	146225
#	168242
#	190730
#
# Disc length: 2871 seconds
#
# Revision: 0
# Processed by: cddbd v1.4PL0 Copyright (c) Steve Scherf et al.
# Submitted via: CDex 1.50Beta7
#
DISCID=670b3508
DTITLE=Chinmaya Dunster - Sacred Temples of India
DYEAR=2002
DGENRE=New Age
TTITLE0=Dhopabara
TTITLE1=Mount Kailash
TTITLE2=Gir Forest
TTITLE3=Chamba
TTITLE4=Hanuman in New Delhi
TTITLE5=Khajuraho
TTITLE6=Konark
TTITLE7=Chidambaram
EXTD=YEAR: 2002
EXTT0=
EXTT1=
EXTT2=
EXTT3=
EXTT4=
EXTT5=
EXTT6=
EXTT7=
PLAYORDER=
